<svg xmlns="http://www.w3.org/2000/svg" width="800" height="500" viewBox="0 0 800 500">
  <defs>
    <filter id="shadow" x="-20%" y="-20%" width="140%" height="140%">
      <feDropShadow dx="3" dy="3" stdDeviation="5" flood-opacity="0.2"/>
    </filter>
  </defs>
  
  <!-- Background with subtle grid -->
  <rect width="800" height="500" fill="#f8f9fa"/>
  <path d="M0,50 L800,50 M0,100 L800,100 M0,150 L800,150 M0,200 L800,200 M0,250 L800,250 M0,300 L800,300 M0,350 L800,350 M0,400 L800,400 M0,450 L800,450" stroke="#e9ecef" stroke-width="1"/>
  <path d="M50,0 L50,500 M100,0 L100,500 M150,0 L150,500 M200,0 L200,500 M250,0 L250,500 M300,0 L300,500 M350,0 L350,500 M400,0 L400,500 M450,0 L450,500 M500,0 L500,500 M550,0 L550,500 M600,0 L600,500 M650,0 L650,500 M700,0 L700,500 M750,0 L750,500" stroke="#e9ecef" stroke-width="1"/>
  
  <!-- Connection lines -->
  <g opacity="0.6">
    <!-- Primary connections -->
    <path d="M400,250 L200,150" stroke="#2196F3" stroke-width="3"/>
    <path d="M400,250 L250,350" stroke="#2196F3" stroke-width="3"/>
    <path d="M400,250 L600,150" stroke="#2196F3" stroke-width="3"/>
    <path d="M400,250 L550,350" stroke="#2196F3" stroke-width="3"/>
    <path d="M400,250 L570,250" stroke="#2196F3" stroke-width="3"/>
    
    <!-- Secondary connections -->
    <path d="M200,150 L600,150" stroke="#90caf9" stroke-width="2" stroke-dasharray="5,5"/>
    <path d="M250,350 L550,350" stroke="#90caf9" stroke-width="2" stroke-dasharray="5,5"/>
    <path d="M600,150 L570,250" stroke="#90caf9" stroke-width="2" stroke-dasharray="5,5"/>
    <path d="M570,250 L550,350" stroke="#90caf9" stroke-width="2" stroke-dasharray="5,5"/>
    <path d="M200,150 L250,350" stroke="#90caf9" stroke-width="2" stroke-dasharray="5,5"/>
  </g>
  
  <!-- Document nodes -->
  <g filter="url(#shadow)">
    <!-- Central document -->
    <g transform="translate(400,250)">
      <rect x="-40" y="-50" width="80" height="100" rx="5" fill="#2196F3"/>
      <rect x="-30" y="-40" width="60" height="10" rx="2" fill="white" opacity="0.7"/>
      <rect x="-30" y="-25" width="60" height="5" rx="2" fill="white" opacity="0.7"/>
      <rect x="-30" y="-15" width="60" height="5" rx="2" fill="white" opacity="0.7"/>
      <rect x="-30" y="-5" width="40" height="5" rx="2" fill="white" opacity="0.7"/>
      <rect x="-30" y="5" width="60" height="5" rx="2" fill="white" opacity="0.7"/>
      <rect x="-30" y="15" width="50" height="5" rx="2" fill="white" opacity="0.7"/>
      <rect x="-30" y="25" width="60" height="5" rx="2" fill="white" opacity="0.7"/>
      <rect x="-30" y="35" width="30" height="5" rx="2" fill="white" opacity="0.7"/>
    </g>
    
    <!-- Surrounding documents -->
    <g transform="translate(200,150)">
      <rect x="-35" y="-45" width="70" height="90" rx="5" fill="#64b5f6"/>
      <rect x="-25" y="-35" width="50" height="8" rx="2" fill="white" opacity="0.7"/>
      <rect x="-25" y="-22" width="50" height="4" rx="2" fill="white" opacity="0.7"/>
      <rect x="-25" y="-14" width="50" height="4" rx="2" fill="white" opacity="0.7"/>
      <rect x="-25" y="-6" width="35" height="4" rx="2" fill="white" opacity="0.7"/>
      <rect x="-25" y="2" width="50" height="4" rx="2" fill="white" opacity="0.7"/>
      <rect x="-25" y="10" width="40" height="4" rx="2" fill="white" opacity="0.7"/>
      <rect x="-25" y="18" width="50" height="4" rx="2" fill="white" opacity="0.7"/>
      <rect x="-25" y="26" width="25" height="4" rx="2" fill="white" opacity="0.7"/>
    </g>
    
    <g transform="translate(600,150)">
      <rect x="-35" y="-45" width="70" height="90" rx="5" fill="#64b5f6"/>
      <rect x="-25" y="-35" width="50" height="8" rx="2" fill="white" opacity="0.7"/>
      <rect x="-25" y="-22" width="50" height="4" rx="2" fill="white" opacity="0.7"/>
      <rect x="-25" y="-14" width="50" height="4" rx="2" fill="white" opacity="0.7"/>
      <rect x="-25" y="-6" width="35" height="4" rx="2" fill="white" opacity="0.7"/>
      <rect x="-25" y="2" width="50" height="4" rx="2" fill="white" opacity="0.7"/>
      <rect x="-25" y="10" width="40" height="4" rx="2" fill="white" opacity="0.7"/>
      <rect x="-25" y="18" width="50" height="4" rx="2" fill="white" opacity="0.7"/>
      <rect x="-25" y="26" width="25" height="4" rx="2" fill="white" opacity="0.7"/>
    </g>
    
    <g transform="translate(250,350)">
      <rect x="-35" y="-45" width="70" height="90" rx="5" fill="#64b5f6"/>
      <rect x="-25" y="-35" width="50" height="8" rx="2" fill="white" opacity="0.7"/>
      <rect x="-25" y="-22" width="50" height="4" rx="2" fill="white" opacity="0.7"/>
      <rect x="-25" y="-14" width="50" height="4" rx="2" fill="white" opacity="0.7"/>
      <rect x="-25" y="-6" width="35" height="4" rx="2" fill="white" opacity="0.7"/>
      <rect x="-25" y="2" width="50" height="4" rx="2" fill="white" opacity="0.7"/>
      <rect x="-25" y="10" width="40" height="4" rx="2" fill="white" opacity="0.7"/>
      <rect x="-25" y="18" width="50" height="4" rx="2" fill="white" opacity="0.7"/>
      <rect x="-25" y="26" width="25" height="4" rx="2" fill="white" opacity="0.7"/>
    </g>
    
    <g transform="translate(550,350)">
      <rect x="-35" y="-45" width="70" height="90" rx="5" fill="#64b5f6"/>
      <rect x="-25" y="-35" width="50" height="8" rx="2" fill="white" opacity="0.7"/>
      <rect x="-25" y="-22" width="50" height="4" rx="2" fill="white" opacity="0.7"/>
      <rect x="-25" y="-14" width="50" height="4" rx="2" fill="white" opacity="0.7"/>
      <rect x="-25" y="-6" width="35" height="4" rx="2" fill="white" opacity="0.7"/>
      <rect x="-25" y="2" width="50" height="4" rx="2" fill="white" opacity="0.7"/>
      <rect x="-25" y="10" width="40" height="4" rx="2" fill="white" opacity="0.7"/>
      <rect x="-25" y="18" width="50" height="4" rx="2" fill="white" opacity="0.7"/>
      <rect x="-25" y="26" width="25" height="4" rx="2" fill="white" opacity="0.7"/>
    </g>
    
    <g transform="translate(570,250)">
      <rect x="-35" y="-45" width="70" height="90" rx="5" fill="#64b5f6"/>
      <rect x="-25" y="-35" width="50" height="8" rx="2" fill="white" opacity="0.7"/>
      <rect x="-25" y="-22" width="50" height="4" rx="2" fill="white" opacity="0.7"/>
      <rect x="-25" y="-14" width="50" height="4" rx="2" fill="white" opacity="0.7"/>
      <rect x="-25" y="-6" width="35" height="4" rx="2" fill="white" opacity="0.7"/>
      <rect x="-25" y="2" width="50" height="4" rx="2" fill="white" opacity="0.7"/>
      <rect x="-25" y="10" width="40" height="4" rx="2" fill="white" opacity="0.7"/>
      <rect x="-25" y="18" width="50" height="4" rx="2" fill="white" opacity="0.7"/>
      <rect x="-25" y="26" width="25" height="4" rx="2" fill="white" opacity="0.7"/>
    </g>
  </g>
  
  <!-- Connection highlights -->
  <g>
    <circle cx="400" cy="250" r="8" fill="#1976D2"/>
    <circle cx="200" cy="150" r="5" fill="#1976D2"/>
    <circle cx="600" cy="150" r="5" fill="#1976D2"/>
    <circle cx="250" cy="350" r="5" fill="#1976D2"/>
    <circle cx="550" cy="350" r="5" fill="#1976D2"/>
    <circle cx="570" cy="250" r="5" fill="#1976D2"/>
  </g>
  
  <!-- Animated pulse effect on central node -->
  <circle cx="400" cy="250" r="15" fill="#2196F3" opacity="0.5">
    <animate attributeName="r" values="15;25;15" dur="3s" repeatCount="indefinite"/>
    <animate attributeName="opacity" values="0.5;0;0.5" dur="3s" repeatCount="indefinite"/>
  </circle>
</svg> 