<svg xmlns="http://www.w3.org/2000/svg" width="800" height="350" viewBox="0 0 800 350">
  <defs>
    <filter id="shadow" x="-20%" y="-20%" width="140%" height="140%">
      <feDropShadow dx="2" dy="2" stdDeviation="3" flood-opacity="0.2"/>
    </filter>
    
    <!-- Gradient for background -->
    <linearGradient id="bgGradient" x1="0%" y1="0%" x2="100%" y2="100%">
      <stop offset="0%" stop-color="#f8f9fa"/>
      <stop offset="100%" stop-color="#e9ecef"/>
    </linearGradient>
    
    <!-- Document icon template -->
    <g id="document">
      <rect x="-30" y="-40" width="60" height="80" rx="4" fill="white" stroke="#90caf9" stroke-width="2"/>
      <rect x="-20" y="-30" width="40" height="5" rx="1" fill="#e3f2fd"/>
      <rect x="-20" y="-20" width="40" height="5" rx="1" fill="#e3f2fd"/>
      <rect x="-20" y="-10" width="30" height="5" rx="1" fill="#e3f2fd"/>
      <rect x="-20" y="0" width="40" height="5" rx="1" fill="#e3f2fd"/>
      <rect x="-20" y="10" width="35" height="5" rx="1" fill="#e3f2fd"/>
      <rect x="-20" y="20" width="40" height="5" rx="1" fill="#e3f2fd"/>
      <rect x="-20" y="30" width="25" height="5" rx="1" fill="#e3f2fd"/>
    </g>
    
    <!-- Arrow template -->
    <marker id="arrowhead" markerWidth="10" markerHeight="7" refX="0" refY="3.5" orient="auto">
      <polygon points="0 0, 10 3.5, 0 7" fill="#2196F3"/>
    </marker>
  </defs>
  
  <!-- Background -->
  <rect width="800" height="350" fill="url(#bgGradient)" rx="10"/>
  
  <!-- Process steps -->
  <g filter="url(#shadow)">
    <!-- Step 1: Storage -->
    <g transform="translate(100, 175)">
      <circle cx="0" cy="0" r="60" fill="#bbdefb" stroke="#2196F3" stroke-width="2"/>
      <path d="M-20,-15 H20 V25 H-20 Z" fill="#2196F3" stroke="white" stroke-width="1.5"/>
      <path d="M-30,-25 H30 V-15 H-30 Z" fill="#2196F3" stroke="white" stroke-width="1.5"/>
      <text x="0" y="50" text-anchor="middle" font-family="Arial" font-size="14" font-weight="bold">S3 Storage</text>
    </g>
    
    <!-- Step 2: Processing -->
    <g transform="translate(275, 175)">
      <circle cx="0" cy="0" r="60" fill="#bbdefb" stroke="#2196F3" stroke-width="2"/>
      <g transform="translate(0, -10)">
        <use href="#document" transform="translate(-15, 0) rotate(-10)"/>
        <use href="#document" transform="translate(0, 0)"/>
        <use href="#document" transform="translate(15, 0) rotate(10)"/>
      </g>
      <text x="0" y="50" text-anchor="middle" font-family="Arial" font-size="14" font-weight="bold">Document</text>
      <text x="0" y="68" text-anchor="middle" font-family="Arial" font-size="14" font-weight="bold">Processing</text>
    </g>
    
    <!-- Step 3: AI Embeddings -->
    <g transform="translate(450, 175)">
      <circle cx="0" cy="0" r="60" fill="#bbdefb" stroke="#2196F3" stroke-width="2"/>
      <g transform="translate(0, -5)">
        <rect x="-25" y="-25" width="50" height="50" fill="#2196F3" rx="5"/>
        <circle cx="-10" cy="-10" r="5" fill="white"/>
        <circle cx="10" cy="-10" r="5" fill="white"/>
        <path d="M-15,15 Q0,25 15,15" stroke="white" stroke-width="3" fill="none"/>
        <path d="M-25,-25 L25,25 M-25,25 L25,-25" stroke="white" stroke-width="2" stroke-opacity="0.5"/>
      </g>
      <text x="0" y="50" text-anchor="middle" font-family="Arial" font-size="14" font-weight="bold">AI</text>
      <text x="0" y="68" text-anchor="middle" font-family="Arial" font-size="14" font-weight="bold">Embeddings</text>
    </g>
    
    <!-- Step 4: Knowledge Graph -->
    <g transform="translate(625, 175)">
      <circle cx="0" cy="0" r="60" fill="#bbdefb" stroke="#2196F3" stroke-width="2"/>
      <g transform="translate(0, 0) scale(0.8)">
        <circle cx="-25" cy="-15" r="12" fill="#2196F3" stroke="white" stroke-width="1.5"/>
        <circle cx="25" cy="-15" r="12" fill="#2196F3" stroke="white" stroke-width="1.5"/>
        <circle cx="0" cy="25" r="12" fill="#2196F3" stroke="white" stroke-width="1.5"/>
        <line x1="-25" y1="-15" x2="25" y2="-15" stroke="white" stroke-width="2"/>
        <line x1="-25" y1="-15" x2="0" y2="25" stroke="white" stroke-width="2"/>
        <line x1="25" y1="-15" x2="0" y2="25" stroke="white" stroke-width="2"/>
      </g>
      <text x="0" y="50" text-anchor="middle" font-family="Arial" font-size="14" font-weight="bold">Knowledge</text>
      <text x="0" y="68" text-anchor="middle" font-family="Arial" font-size="14" font-weight="bold">Graph</text>
    </g>
  </g>
  
  <!-- Connecting arrows -->
  <g>
    <line x1="160" y1="175" x2="215" y2="175" stroke="#2196F3" stroke-width="3" marker-end="url(#arrowhead)"/>
    <line x1="335" y1="175" x2="390" y2="175" stroke="#2196F3" stroke-width="3" marker-end="url(#arrowhead)"/>
    <line x1="510" y1="175" x2="565" y2="175" stroke="#2196F3" stroke-width="3" marker-end="url(#arrowhead)"/>
  </g>
  
  <!-- Process labels -->
  <g font-family="Arial" font-size="12" fill="#546e7a">
    <text x="187" y="155" text-anchor="middle">Extract</text>
    <text x="362" y="155" text-anchor="middle">Analyze</text>
    <text x="538" y="155" text-anchor="middle">Connect</text>
  </g>
  
  <!-- Title -->
  <text x="400" y="30" text-anchor="middle" font-family="Arial" font-size="22" font-weight="bold" fill="#1976d2">DocLoader Workflow</text>
  <text x="400" y="55" text-anchor="middle" font-family="Arial" font-size="14" fill="#546e7a">Intelligent Document Processing Pipeline</text>
  
  <!-- Animation for data flow -->
  <g>
    <circle cx="187" cy="175" r="4" fill="#1976d2">
      <animate attributeName="cx" values="160;215" dur="2s" repeatCount="indefinite"/>
    </circle>
    <circle cx="362" cy="175" r="4" fill="#1976d2">
      <animate attributeName="cx" values="335;390" dur="2s" repeatCount="indefinite"/>
    </circle>
    <circle cx="538" cy="175" r="4" fill="#1976d2">
      <animate attributeName="cx" values="510;565" dur="2s" repeatCount="indefinite"/>
    </circle>
  </g>
</svg> 